<svg width="58" height="27" viewBox="0 0 58 27" fill="none" xmlns="http://www.w3.org/2000/svg">
<g clip-path="url(#clip0)">
<path d="M21.372 9.53801V4.07932H20.4264V3.19888H21.372V2.9054C21.372 2.02497 21.5927 1.20323 22.1601 0.674969C22.6329 0.2641 23.2318 0.0880127 23.8307 0.0880127C24.272 0.0880127 24.6503 0.176056 24.9025 0.2641L24.7448 1.14453C24.5557 1.05649 24.3035 0.997796 23.9568 0.997796C22.9166 0.997796 22.6329 1.84888 22.6329 2.84671V3.19888H24.272V4.07932H22.6329V9.53801H21.372Z" fill="#676B8B"/>
<path d="M19.1026 2.11301C19.6069 2.11301 19.8906 1.79019 19.8906 1.40867C19.8906 0.997796 19.5754 0.674969 19.1341 0.674969C18.6613 0.674969 18.3461 0.997796 18.3461 1.40867C18.3461 1.79019 18.6613 2.11301 19.1026 2.11301Z" fill="#676B8B"/>
<path d="M19.733 3.19888H18.5037V9.53801H19.733V3.19888Z" fill="#676B8B"/>
<path d="M0.0948486 0.704346L3.18398 9.53804H4.53941L7.94376 0.704346H6.61985L5.01224 5.07717C4.98065 5.16541 4.94905 5.25348 4.91753 5.34135C4.54021 6.39317 4.17323 7.41615 3.9405 8.36413H3.90898C3.6568 7.30761 3.31007 6.25109 2.90028 5.04783L1.41876 0.704346H0.0948486Z" fill="#676B8B"/>
<path fill-rule="evenodd" clip-rule="evenodd" d="M10.9386 8.77497C9.70922 8.77497 8.63748 8.12932 8.60596 6.57388L13.3973 6.54454C13.3973 6.49592 13.4027 6.43723 13.409 6.36848C13.418 6.27123 13.4288 6.15381 13.4288 6.01627C13.4288 4.84236 12.8614 3.0228 10.6234 3.0228C8.63748 3.0228 7.43966 4.54888 7.43966 6.45649C7.43966 8.3641 8.66901 9.65541 10.781 9.65541C11.8527 9.65541 12.6092 9.44997 13.0505 9.27388L12.8299 8.45214C12.357 8.62823 11.8212 8.77497 10.9386 8.77497ZM10.4973 3.87388C11.9157 3.87388 12.2625 5.01845 12.231 5.75214H8.60596C8.70053 4.95975 9.2364 3.87388 10.4973 3.87388Z" fill="#676B8B"/>
<path d="M14.4055 5.16522C14.4055 4.43152 14.4055 3.78587 14.3424 3.19891H15.4142L15.4457 4.43152H15.5087C15.8239 3.58043 16.5805 3.05217 17.4 3.05217C17.5261 3.05217 17.6522 3.05217 17.7468 3.08152V4.16739C17.6207 4.13804 17.4946 4.13804 17.337 4.13804C16.4544 4.13804 15.8555 4.75435 15.6663 5.60543C15.6348 5.75217 15.6033 5.95761 15.6033 6.13369V9.50869H14.3739V5.16522H14.4055Z" fill="#676B8B"/>
<path d="M26.0374 2.11301C26.5417 2.11301 26.8569 1.79019 26.8254 1.40867C26.8254 0.997796 26.5417 0.674969 26.0689 0.674969C25.5961 0.674969 25.2808 0.997796 25.2808 1.40867C25.2808 1.79019 25.5961 2.11301 26.0374 2.11301Z" fill="#676B8B"/>
<path d="M26.6678 3.19888H25.4384V9.53801H26.6678V3.19888Z" fill="#676B8B"/>
<path fill-rule="evenodd" clip-rule="evenodd" d="M28.8741 6.57388C28.9056 8.12932 29.9773 8.77497 31.2067 8.77497C32.0893 8.77497 32.6252 8.62823 33.098 8.45214L33.3186 9.27388C32.8773 9.44997 32.1208 9.65541 31.0491 9.65541C28.9371 9.65541 27.7078 8.3641 27.7078 6.45649C27.7078 4.54888 28.9056 3.0228 30.8915 3.0228C33.1295 3.0228 33.6969 4.84236 33.6969 6.01627C33.6969 6.15374 33.6861 6.27108 33.6771 6.3683C33.6708 6.43703 33.6654 6.49593 33.6654 6.54454L28.8741 6.57388ZM32.4991 5.75214C32.4991 5.01845 32.1838 3.87388 30.7654 3.87388C29.5045 3.87388 28.9686 4.95975 28.8741 5.75214H32.4991Z" fill="#676B8B"/>
<path fill-rule="evenodd" clip-rule="evenodd" d="M40.5685 7.89454V0.234752H39.3392V3.99127H39.3076C38.9924 3.49236 38.2989 3.0228 37.2587 3.0228C35.5881 3.0228 34.2011 4.3141 34.2011 6.42714C34.2011 8.3641 35.462 9.65541 37.1011 9.65541C38.2359 9.65541 39.0555 9.12714 39.4337 8.4228H39.4652L39.5283 9.53801H40.6315C40.5685 9.0978 40.5685 8.45214 40.5685 7.89454ZM39.2761 5.28258C39.3392 5.42932 39.3392 5.63475 39.3392 5.78149V6.86736C39.3392 7.04345 39.3076 7.21954 39.2761 7.36628C39.0239 8.24671 38.2674 8.74562 37.4479 8.74562C36.0924 8.74562 35.4305 7.6891 35.4305 6.3978C35.4305 4.9891 36.187 3.93258 37.4794 3.93258C38.425 3.93258 39.087 4.54888 39.2761 5.28258Z" fill="#676B8B"/>
<path fill-rule="evenodd" clip-rule="evenodd" d="M45.1395 9.53801C45.1711 9.0978 45.2026 8.45214 45.2026 7.89454V0.234752H46.4319V4.22606H46.4634C46.9047 3.52171 47.6928 3.05214 48.7961 3.05214C50.4982 3.05214 51.6961 4.3728 51.6645 6.28041C51.6645 8.54019 50.12 9.68475 48.6069 9.68475C47.6297 9.68475 46.8417 9.33258 46.3374 8.48149H46.3058L46.2428 9.53801H45.1395ZM46.4319 6.98475C46.4319 7.13149 46.4634 7.27823 46.495 7.39562C46.7471 8.18801 47.4406 8.74562 48.3547 8.74562C49.6471 8.74562 50.4352 7.7478 50.4352 6.30975C50.4352 5.0478 49.7417 3.96193 48.4178 3.96193C47.5667 3.96193 46.7787 4.49019 46.5265 5.37062C46.495 5.48801 46.4634 5.6641 46.4634 5.84019V6.98475H46.4319Z" fill="#676B8B"/>
<path d="M54.5012 6.95543L53.0197 3.19891H51.6643L54.186 9.03913C54.2491 9.18587 54.2806 9.27391 54.2806 9.33261C54.2806 9.3913 54.2491 9.47935 54.186 9.59674C53.9023 10.1837 53.4925 10.6533 53.1458 10.888C52.7991 11.1815 52.3893 11.3576 52.0741 11.4457L52.3893 12.4141C52.7045 12.3848 53.3034 12.1793 53.9023 11.6804C54.7534 11.0054 55.3523 9.89022 56.2349 7.71848L58.0947 3.19891H56.7708L55.4154 6.92609C55.2839 7.232 55.183 7.56626 55.0913 7.86978C55.051 8.00302 55.0125 8.13034 54.9741 8.24674H54.9425C54.9183 8.17331 54.8928 8.09553 54.8665 8.01487L54.8663 8.01445L54.8662 8.01415C54.7556 7.67588 54.6284 7.28699 54.5012 6.95543Z" fill="#676B8B"/>
<path d="M20.6471 13.8521L16.8961 22.6858L15.383 15.1728C15.1939 14.3217 14.5004 13.8521 13.7124 13.8521H7.56562L7.47106 14.2336C8.73193 14.4978 10.1504 14.9086 11.033 15.3489C11.5689 15.613 11.7265 15.8478 11.8841 16.4934L14.7526 26.8532H18.5982L24.4613 13.8521H20.6471Z" fill="#676B8B"/>
<path d="M23.0109 26.8532L26.0055 13.8521H29.5989L26.6359 26.8532H23.0109Z" fill="#676B8B"/>
<path d="M34.359 17.462C34.359 16.9924 34.8633 16.4935 35.9035 16.3761C36.4079 16.3174 37.8579 16.2587 39.4655 16.963L40.0959 14.2043C39.2133 13.9109 38.1101 13.6174 36.7231 13.6174C33.1611 13.6174 30.6394 15.3783 30.6079 17.9315C30.5764 19.8098 32.4046 20.837 33.7601 21.4533C35.1785 22.0989 35.6514 22.4804 35.6198 23.0674C35.6198 23.9478 34.4851 24.3293 33.4764 24.3293C31.7811 24.3566 30.7634 23.9296 29.9458 23.5865C29.8816 23.5596 29.8187 23.5332 29.7568 23.5076L29.0948 26.3544C29.9459 26.7065 31.4905 27.0294 33.0981 27.0294C36.8807 27.0294 39.3709 25.2978 39.3709 22.5685C39.4086 20.5509 37.5988 19.666 36.1437 18.9545C35.1647 18.4759 34.3463 18.0757 34.359 17.462Z" fill="#676B8B"/>
<path fill-rule="evenodd" clip-rule="evenodd" d="M44.6349 14.7913C44.8871 14.2337 45.486 13.8522 46.1795 13.8522V13.8228H49.2686L52.1686 26.8239H48.8273L48.386 24.8869H43.7523L42.9958 26.8239H39.2132L44.6349 14.7913ZM46.7154 17.3739L44.7925 22.2456H47.7871L46.7154 17.3739Z" fill="#676B8B"/>
</g>
<defs>
<clipPath id="clip0">
<rect width="58" height="27" fill="white"/>
</clipPath>
</defs>
</svg>
