<svg width="74" height="27" viewBox="0 0 74 27" fill="none" xmlns="http://www.w3.org/2000/svg">
<path d="M33.8675 24.2178C34.2129 24.2178 34.4842 24.2178 34.9282 24.03C36.4575 23.267 41.6252 11.2578 47.0765 7.56001C47.1135 7.53654 47.1505 7.50132 47.1752 7.4661C47.2122 7.41915 47.2122 7.37219 47.2122 7.37219C47.2122 7.37219 47.2122 7.12567 46.4105 7.12567C41.5635 6.99654 36.5192 16.6813 33.8675 20.5083C33.8305 20.5552 33.6578 20.5083 33.6578 20.5083C33.6578 20.5083 31.8819 18.5126 30.3402 17.7496C30.3032 17.7378 30.1305 17.6792 29.9455 17.6909C29.8222 17.6909 29.1069 17.8318 28.7739 18.1605C28.3792 18.5596 28.3915 18.7826 28.3915 19.2639C28.3915 19.2992 28.4162 19.4635 28.4655 19.5457C28.8479 20.1796 30.5622 22.4335 31.9805 23.6778C32.1902 23.8305 32.5232 24.2178 33.8675 24.2178Z" fill="#676B8B" fill-opacity="0.6"/>
<path d="M10.8915 13.4588V10.6483H11.9277C11.9277 10.6483 13.4203 10.7071 13.5436 11.6831C13.5683 11.7537 13.5683 12.2358 13.5436 12.2593C13.3463 13.4 12.0511 13.4588 12.0511 13.4588H10.8915Z" fill="#676B8B"/>
<path fill-rule="evenodd" clip-rule="evenodd" d="M34.8599 0L39.6213 10.1132C39.0771 10.8214 37.441 12.9759 35.9078 15.0789V8.30809H31.5904V17.3033C31.5803 17.2968 31.5702 17.2904 31.5601 17.284C30.9729 16.913 30.3573 16.654 29.7646 16.5634V16.0929C29.7646 16.0577 29.7399 16.0459 29.7153 16.0694C29.7153 16.0694 29.2465 16.4222 27.1988 16.6221C26.6191 16.6809 26.3354 16.6574 26.1257 16.6221C23.2145 16.1517 23.0788 14.1291 23.0788 14.1291C23.0788 14.1097 23.0751 14.0831 23.0717 14.0593C23.069 14.0398 23.0665 14.0221 23.0665 14.0115V13.2354C23.0665 13.2001 23.0665 13.1413 23.0788 13.1178C23.0788 13.1178 23.2762 10.9423 26.1257 10.7071H27.1988C28.4447 10.8599 29.4562 11.4479 29.4562 11.4479C29.4932 11.4597 29.5179 11.4479 29.5179 11.4126V8.68441C29.5179 8.64913 29.4932 8.61385 29.4562 8.59034C29.4562 8.59034 28.8888 8.23755 27.1618 8.14347C27.0755 8.09643 25.5582 8.08467 25.1512 8.14347C18.8601 8.62561 18.6257 12.9649 18.6257 13.1531V14.2114C18.6257 14.3408 18.6257 18.7741 25.1512 19.1622C25.6747 19.2006 26.601 19.1763 26.9908 19.1661L26.991 19.1661L26.9928 19.166L26.9933 19.166C27.0797 19.1638 27.1394 19.1622 27.1618 19.1622C27.1757 19.1622 27.1895 19.1622 27.2033 19.1621C27.2066 19.1804 27.2101 19.1987 27.2137 19.217C27.3559 19.9357 27.73 20.7042 28.2481 21.4142L9.65862 27L0 1.88153L34.8599 0ZM33.7491 7.28501C35.2047 7.28501 36.3889 6.22665 36.3889 4.90957C36.3889 3.5925 35.2047 2.53414 33.7491 2.53414C32.2935 2.53414 31.1093 3.5925 31.1093 4.90957C31.1093 6.21489 32.2935 7.28501 33.7491 7.28501ZM6.6975 19.0916C6.66049 19.0916 6.63582 19.0681 6.63582 19.0328V8.3669C6.63582 8.33162 6.66049 8.3081 6.6975 8.3081H12.1497C13.5313 8.2493 17.75 8.61385 17.75 12.0124C17.75 16.3046 11.0272 15.846 11.0272 15.846C10.9902 15.846 10.9655 15.8695 10.9655 15.9048V19.0328C10.9655 19.0681 10.9409 19.0916 10.9039 19.0916H6.6975Z" fill="#676B8B"/>
<path d="M40.4478 17.7452L42.8779 17.0161L42.0884 15.3463C41.5086 16.0401 40.9289 16.9338 40.4478 17.7452Z" fill="#676B8B"/>
<path fill-rule="evenodd" clip-rule="evenodd" d="M51.5497 15.0758C51.5497 14.6524 51.673 14.3232 51.9197 14.088C52.1664 13.8528 52.5118 13.7352 52.9559 13.7352C53.4123 13.7352 53.7577 13.8528 54.0044 14.0762C54.2511 14.3114 54.3745 14.6289 54.3745 15.0523C54.3745 15.358 54.3251 15.605 54.2141 15.7931C54.1031 15.9813 53.9551 16.1342 53.7454 16.24C53.548 16.3458 53.2889 16.4046 52.9929 16.4046C52.6845 16.4046 52.4378 16.3576 52.2281 16.2635C52.0307 16.1694 51.8704 16.0283 51.7347 15.8166C51.599 15.605 51.5497 15.3815 51.5497 15.0758ZM52.3885 15.0758C52.3885 15.3345 52.4378 15.5227 52.5365 15.6403C52.6352 15.7578 52.7709 15.8166 52.9559 15.8166C53.1409 15.8166 53.2766 15.7578 53.3753 15.652C53.474 15.5344 53.5233 15.3345 53.5233 15.0523C53.5233 14.8053 53.474 14.6289 53.363 14.5231C53.2643 14.4055 53.1163 14.3585 52.9436 14.3585C52.7709 14.3585 52.6352 14.4173 52.5365 14.5349C52.4378 14.6289 52.3885 14.8171 52.3885 15.0758Z" fill="#676B8B"/>
<path d="M50.5135 15.311L51.2536 15.5227C51.2043 15.7226 51.1303 15.8872 51.0192 16.0166C50.9082 16.1459 50.7849 16.2518 50.6245 16.3105C50.4641 16.3811 50.2668 16.4164 50.0201 16.4164C49.724 16.4164 49.4896 16.3811 49.2923 16.2988C49.1072 16.2165 48.9469 16.0754 48.8112 15.8637C48.6755 15.6638 48.6015 15.3933 48.6015 15.0758C48.6015 14.6524 48.7248 14.3232 48.9592 14.088C49.1936 13.8528 49.539 13.747 49.9707 13.747C50.3161 13.747 50.5752 13.8175 50.7725 13.9469C50.9699 14.0762 51.1179 14.2761 51.2043 14.5584L50.4641 14.7112C50.4395 14.6289 50.4148 14.5701 50.3778 14.5349C50.3285 14.4761 50.2791 14.429 50.2051 14.3937C50.1311 14.3585 50.0571 14.3467 49.9831 14.3467C49.798 14.3467 49.65 14.4173 49.5513 14.5701C49.4773 14.676 49.4403 14.8524 49.4403 15.0758C49.4403 15.358 49.4896 15.5579 49.576 15.6638C49.6623 15.7696 49.798 15.8284 49.9584 15.8284C50.1187 15.8284 50.2421 15.7814 50.3161 15.699C50.4148 15.5932 50.4765 15.4756 50.5135 15.311Z" fill="#676B8B"/>
<path d="M55.9041 13.7822H54.7815V16.3693H55.4723V14.3937L56.0027 16.3693H56.6195L57.1499 14.3937V16.3693H57.8407V13.7822H56.7429L56.3235 15.358L55.9041 13.7822Z" fill="#676B8B"/>
<path fill-rule="evenodd" clip-rule="evenodd" d="M58.3835 13.7822H59.7774C60.0858 13.7822 60.3078 13.8528 60.4558 13.9939C60.6038 14.135 60.6779 14.3232 60.6779 14.5819C60.6779 14.8406 60.5915 15.0523 60.4311 15.1934C60.2708 15.3463 60.0117 15.4168 59.6787 15.4168H59.2223V16.3811H58.3835V13.7822ZM59.2346 14.8876H59.432C59.5923 14.8876 59.7034 14.8641 59.7774 14.8053C59.8391 14.7465 59.8761 14.6877 59.8761 14.6054C59.8761 14.5231 59.8514 14.4525 59.7897 14.3937C59.728 14.3349 59.6293 14.3114 59.469 14.3114H59.2346V14.8876Z" fill="#676B8B"/>
<path d="M61.9607 13.7822H61.1219V16.3693H63.2683V15.7343H61.9607V13.7822Z" fill="#676B8B"/>
<path d="M63.6877 13.7822H64.5265V16.3693H63.6877V13.7822Z" fill="#676B8B"/>
<path fill-rule="evenodd" clip-rule="evenodd" d="M65.8464 15.9342H66.7962L66.9442 16.3576H67.8201L66.7962 13.7705H65.8834L64.8596 16.3576H65.7107L65.8464 15.9342ZM66.3275 14.4525L66.6235 15.3815H66.0314L66.3275 14.4525Z" fill="#676B8B"/>
<path d="M68.0791 13.7822H68.8562L69.8801 15.2169V13.7822H70.6695V16.3693H69.8801L68.8686 14.9464V16.3693H68.0791V13.7822Z" fill="#676B8B"/>
<path d="M73.593 13.7822H71.0519V14.4173H71.9031V16.3693H72.7419V14.4173H73.593V13.7822Z" fill="#676B8B"/>
<path fill-rule="evenodd" clip-rule="evenodd" d="M52.5489 3.93948H48.5152V12.3123H52.5489C53.03 12.3123 53.5728 12.2417 54.1649 12.0889C54.5966 11.9713 55.0037 11.7478 55.3861 11.4186C55.7685 11.0775 56.0645 10.666 56.2742 10.1721C56.4839 9.67816 56.5949 8.98434 56.5949 8.09061C56.5949 7.51439 56.5209 6.97346 56.3729 6.46779C56.2372 5.96213 56.0028 5.51527 55.6821 5.1272C55.3737 4.7509 54.9667 4.45691 54.4732 4.24523C53.9922 4.04532 53.3507 3.93948 52.5489 3.93948ZM51.229 10.4073V5.83278H51.9075C52.6229 5.83278 53.1164 5.99741 53.4247 6.32668C53.7331 6.65595 53.8811 7.25568 53.8811 8.14941C53.8811 8.81971 53.8071 9.31361 53.6714 9.6076C53.5358 9.90159 53.3384 10.1133 53.104 10.2309C52.8696 10.3485 52.4626 10.4073 51.8951 10.4073H51.229Z" fill="#676B8B"/>
<path d="M57.3474 9.54881L59.9378 9.39593C59.9995 9.79575 60.1105 10.1015 60.2832 10.3132C60.5669 10.6542 60.9617 10.8188 61.4798 10.8188C61.8622 10.8188 62.1705 10.7365 62.3802 10.5601C62.5899 10.3837 62.701 10.1838 62.701 9.96039C62.701 9.74872 62.6023 9.54881 62.4049 9.37241C62.2075 9.19602 61.7388 9.04314 61.011 8.89027C59.8145 8.63156 58.9757 8.29053 58.4576 7.86718C57.9395 7.44384 57.6928 6.9029 57.6928 6.24436C57.6928 5.80926 57.8285 5.40943 58.0875 5.02137C58.3466 4.6333 58.7413 4.33931 59.2717 4.11588C59.8021 3.89244 60.5176 3.78661 61.4304 3.78661C62.5529 3.78661 63.4164 3.98652 63.9962 4.38635C64.5883 4.78617 64.9337 5.42119 65.0447 6.2914L62.4789 6.43252C62.4049 6.05621 62.2692 5.78574 62.0472 5.60935C61.8251 5.43295 61.5291 5.35063 61.1467 5.35063C60.826 5.35063 60.5916 5.40943 60.4312 5.53879C60.2709 5.66814 60.1969 5.82102 60.1969 6.00917C60.1969 6.13853 60.2585 6.26788 60.3942 6.37372C60.5176 6.47955 60.826 6.58539 61.3071 6.67946C62.4913 6.92642 63.3424 7.17337 63.8605 7.42032C64.3786 7.66727 64.7486 7.98478 64.983 8.34933C65.2174 8.71387 65.3284 9.13722 65.3284 9.59584C65.3284 10.1368 65.168 10.6307 64.8597 11.0776C64.5513 11.5362 64.1072 11.8772 63.5521 12.1124C62.997 12.3476 62.2816 12.4652 61.4304 12.4652C59.9378 12.4652 58.9017 12.1947 58.3219 11.642C57.7545 11.0893 57.4337 10.3955 57.3474 9.54881Z" fill="#676B8B"/>
<path d="M68.6094 9.3959L66.019 9.54878C66.093 10.3955 66.4137 11.0893 66.9935 11.642C67.5732 12.1947 68.6094 12.4652 70.102 12.4652C70.9532 12.4652 71.6686 12.3476 72.2237 12.1124C72.7788 11.8772 73.2229 11.5361 73.5312 11.0775C73.8396 10.6307 74 10.1368 74 9.59581C74 9.13719 73.889 8.71385 73.6546 8.3493C73.4202 7.98475 73.0502 7.66724 72.5321 7.42029C72.014 7.17334 71.1628 6.92639 69.9787 6.67944C69.4976 6.58536 69.1892 6.47953 69.0658 6.37369C68.9302 6.26785 68.8685 6.1385 68.8685 6.00914C68.8685 5.82099 68.9425 5.66811 69.1028 5.53876C69.2632 5.4094 69.4976 5.3506 69.8183 5.3506C70.2007 5.3506 70.4967 5.43292 70.7188 5.60932C70.9408 5.78571 71.0765 6.05618 71.1505 6.43249L73.7163 6.29137C73.6053 5.42116 73.2599 4.78615 72.6678 4.38632C72.088 3.98649 71.2245 3.78658 70.102 3.78658C69.1892 3.78658 68.4737 3.89242 67.9433 4.11585C67.4129 4.33928 67.0182 4.63327 66.7591 5.02134C66.5001 5.4094 66.3644 5.80923 66.3644 6.24433C66.3644 6.90287 66.6234 7.44381 67.1292 7.86715C67.6473 8.2905 68.4861 8.63153 69.6826 8.89024C70.4104 9.04311 70.8791 9.19599 71.0765 9.37238C71.2739 9.54878 71.3726 9.74869 71.3726 9.96036C71.3726 10.1838 71.2615 10.3837 71.0518 10.5601C70.8421 10.7365 70.5337 10.8188 70.1514 10.8188C69.6333 10.8188 69.2385 10.6542 68.9548 10.3131C68.7821 10.1015 68.6711 9.79573 68.6094 9.3959Z" fill="#676B8B"/>
</svg>
