<svg width="76" height="27" viewBox="0 0 76 27" fill="none" xmlns="http://www.w3.org/2000/svg">
<path d="M6.73814 17.5669C6.32027 17.3163 5.9024 17.1158 5.4323 16.9654C4.9622 16.815 4.4921 16.7649 4.02199 16.7649C3.70859 16.7649 3.44742 16.815 3.13402 16.8651C2.87285 16.9153 2.66392 17.0155 2.45498 17.1158C2.29828 17.216 2.14158 17.3664 2.03711 17.5669C1.93265 17.7173 1.88041 17.9178 1.88041 18.1183C1.88041 18.3188 1.93265 18.4692 2.03711 18.6196C2.14158 18.7699 2.24605 18.8702 2.45498 18.9705C2.66392 19.0707 2.87285 19.171 3.08179 19.2211C3.34296 19.3213 3.65636 19.3715 3.91753 19.3715L4.59656 19.4717C4.9622 19.5218 5.38007 19.6221 5.7457 19.7223C6.11134 19.8226 6.42474 19.973 6.73814 20.1735C6.99931 20.374 7.26048 20.6246 7.41718 20.9254C7.62612 21.2763 7.67835 21.6271 7.67835 22.0282C7.67835 22.4793 7.57388 22.8803 7.36495 23.2813C7.15601 23.6322 6.89484 23.933 6.52921 24.1836C6.16357 24.4342 5.7457 24.6347 5.32783 24.735C4.8055 24.7851 4.28316 24.8854 3.81306 24.8854C3.49966 24.8854 3.13402 24.8352 2.82062 24.7851C2.45498 24.735 2.14158 24.6347 1.77594 24.5345C1.46254 24.4342 1.14914 24.2838 0.835739 24.1335C0.522337 23.9831 0.261168 23.7826 0 23.5821L0.835739 22.379C0.99244 22.5294 1.20137 22.6798 1.41031 22.7801C1.88041 23.0307 2.40275 23.2312 2.97732 23.3314C3.23849 23.3816 3.55189 23.3816 3.81306 23.4317C4.12646 23.4317 4.38763 23.4317 4.70103 23.3314C4.9622 23.2813 5.17113 23.1811 5.4323 23.0808C5.64124 22.9806 5.79794 22.8302 5.90241 22.6798C6.00687 22.5294 6.05911 22.3289 6.05911 22.0783C6.05911 21.7274 5.85017 21.4266 5.53677 21.2763C5.01443 21.0256 4.4921 20.9254 3.91753 20.8753L3.18625 20.775C2.82062 20.7249 2.50722 20.6246 2.14158 20.5244C1.82818 20.4241 1.51478 20.2737 1.25361 20.0732C0.99244 19.8727 0.783505 19.6221 0.626804 19.3213C0.470103 18.9705 0.365636 18.6196 0.365636 18.2186C0.365636 17.8175 0.470103 17.3664 0.679038 17.0155C0.783505 16.6646 1.09691 16.3639 1.41031 16.1133C1.77594 15.8626 2.19381 15.6621 2.61168 15.5619C3.08179 15.4115 3.60412 15.3614 4.07423 15.3614C4.70103 15.3614 5.32783 15.4616 5.95464 15.612C6.52921 15.7624 7.05155 16.013 7.52165 16.3138L6.73814 17.5669ZM11.9615 18.2687C12.3794 18.2687 12.7972 18.3689 13.2151 18.5193C13.5808 18.6697 13.8942 18.9203 14.2076 19.171C14.4687 19.4717 14.6777 19.8226 14.8344 20.2236C14.9911 20.6747 15.0955 21.1259 15.0433 21.577C15.0433 21.6773 15.0433 21.7274 15.0433 21.8277C15.0433 21.9279 15.0433 21.978 15.0433 22.0783H10.1856C10.2378 22.3289 10.29 22.5795 10.4467 22.8302C10.5512 23.0307 10.7079 23.1811 10.8646 23.3314C11.0213 23.4818 11.2302 23.5821 11.4392 23.6322C11.6481 23.6823 11.857 23.7325 12.1182 23.7325C12.4316 23.7325 12.7972 23.6823 13.1107 23.5821C13.4241 23.4818 13.7375 23.2813 13.9986 23.0808L14.7299 24.0332C14.3643 24.334 13.9464 24.5846 13.4763 24.735C13.0062 24.8854 12.5361 24.9355 12.066 24.9355C11.5959 24.9355 11.1258 24.8352 10.7079 24.6848C10.29 24.5345 9.97663 24.2838 9.66323 24.0332C9.34983 23.7325 9.14089 23.3816 8.98419 22.9806C8.82749 22.5294 8.72302 22.0783 8.72302 21.6271C8.72302 21.176 8.77526 20.7249 8.98419 20.2737C9.14089 19.8727 9.34983 19.5218 9.66323 19.2211C9.97663 18.9203 10.29 18.7198 10.7079 18.5694C11.0735 18.3689 11.4914 18.2687 11.9615 18.2687ZM11.9093 19.4717C11.7003 19.4717 11.4392 19.5218 11.2302 19.572C11.0213 19.6221 10.8646 19.7725 10.7079 19.8727C10.5512 20.0231 10.4467 20.1735 10.3423 20.374C10.2378 20.5745 10.1856 20.775 10.1333 20.9755H13.5285C13.4763 20.5745 13.3196 20.1735 13.0062 19.8226C12.745 19.6221 12.3271 19.4717 11.9093 19.4717ZM19.4832 18.2687C19.9533 18.2687 20.4234 18.3689 20.8412 18.5193C21.2591 18.6697 21.6247 18.9203 21.8859 19.2712L20.9457 20.2236C20.7368 20.0231 20.4756 19.8727 20.2144 19.7223C19.9533 19.6221 19.6399 19.572 19.3787 19.572C19.1175 19.572 18.8564 19.6221 18.5952 19.7223C18.3863 19.8226 18.1773 19.973 18.0206 20.1735C17.8639 20.374 17.7072 20.5745 17.6027 20.8251C17.3938 21.3765 17.3938 21.9279 17.6027 22.4292C17.7072 22.6798 17.8117 22.8803 18.0206 23.0808C18.1773 23.2813 18.3863 23.3816 18.6474 23.4818C18.9086 23.5821 19.1698 23.6322 19.4309 23.6322C19.7443 23.6322 20.0577 23.5821 20.3189 23.4317C20.5801 23.3314 20.8412 23.1309 21.0502 22.9806L21.9381 23.933C21.6247 24.2838 21.2591 24.5345 20.8412 24.6848C20.4234 24.8352 19.9533 24.9355 19.4832 24.9355C19.0131 24.9355 18.543 24.8352 18.0728 24.6848C17.2371 24.3841 16.6103 23.7324 16.2969 22.9304C15.9835 22.0783 15.9835 21.176 16.2969 20.3239C16.6103 19.5218 17.2371 18.9203 18.0728 18.5694C18.4907 18.3689 19.0131 18.2687 19.4832 18.2687ZM29.2509 22.0282C29.2509 22.4793 29.1986 22.9304 28.9897 23.3314C28.833 23.6823 28.6241 23.9831 28.3106 24.2337C28.0495 24.4843 27.6838 24.6347 27.3704 24.735C26.6392 24.9355 25.8557 24.9355 25.1244 24.735C24.7588 24.6347 24.4454 24.4843 24.132 24.2337C23.8186 23.9831 23.6096 23.6823 23.4529 23.3314C23.2962 22.9304 23.1918 22.4793 23.1918 22.0282V18.4191H24.6021V21.9279C24.6021 22.1785 24.6543 22.4292 24.7065 22.6798C24.7588 22.8803 24.9155 23.0307 25.0722 23.1811C25.2289 23.3314 25.3856 23.4317 25.5945 23.4818C26.0124 23.5821 26.4302 23.5821 26.8481 23.4818C27.057 23.4317 27.2137 23.3314 27.3704 23.1811C27.5271 23.0307 27.6316 22.8803 27.7361 22.6798C27.8405 22.4292 27.8928 22.1785 27.8405 21.9279V18.4191H29.2509V22.0282ZM34.422 18.2687C34.6309 18.2687 34.8399 18.2687 34.9966 18.3188C35.1533 18.3689 35.3622 18.3689 35.5189 18.4692L35.1533 19.8226C34.9966 19.7223 34.7876 19.6722 34.6309 19.6722C34.422 19.6221 34.2653 19.6221 34.0564 19.6221C33.8474 19.6221 33.6385 19.6722 33.4296 19.7223C33.2206 19.7725 33.0639 19.9229 32.9594 20.0732C32.8027 20.2236 32.6983 20.4241 32.646 20.6246C32.5416 20.8753 32.5416 21.0758 32.5416 21.3264V24.7851H31.079V18.4191H32.4893V19.1208C32.6983 18.8201 32.9594 18.6196 33.3251 18.4692C33.6907 18.3188 34.0564 18.2687 34.422 18.2687ZM39.2275 18.2687C39.6454 18.2687 40.0632 18.3689 40.4811 18.5193C40.8467 18.6697 41.1601 18.9203 41.4735 19.171C41.7869 19.4717 41.9959 19.8226 42.1526 20.2236C42.3093 20.6747 42.4137 21.1259 42.3615 21.577C42.3615 21.6773 42.3615 21.7274 42.3615 21.8277C42.3615 21.9279 42.3615 21.978 42.3615 22.0783H37.5038C37.556 22.3289 37.6082 22.5795 37.7649 22.8302C37.8694 23.0307 38.0261 23.1811 38.1828 23.3314C38.3395 23.4818 38.5484 23.5821 38.7574 23.6322C38.9663 23.6823 39.1753 23.7325 39.4364 23.7325C39.7498 23.7325 40.1155 23.6823 40.4289 23.5821C40.7423 23.4818 41.0557 23.2813 41.3168 23.0808L42.0481 24.0332C41.6825 24.334 41.2646 24.5846 40.7945 24.735C40.3244 24.8854 39.8543 24.9355 39.3842 24.9355C38.9141 24.9355 38.444 24.8352 38.0261 24.6848C37.6082 24.5345 37.2948 24.2838 36.9814 24.0332C36.668 23.7325 36.4591 23.3816 36.3024 22.9806C36.1457 22.5294 36.0412 22.0783 36.0412 21.6271C36.0412 21.176 36.0935 20.7249 36.3024 20.2737C36.4591 19.8727 36.668 19.5218 36.9814 19.2211C37.2948 18.9203 37.6082 18.7198 38.0261 18.5694C38.3395 18.3689 38.7574 18.2687 39.2275 18.2687ZM39.1753 19.4717C38.9663 19.4717 38.7052 19.5218 38.4962 19.572C38.2873 19.6221 38.1306 19.7725 37.9739 19.8727C37.8172 20.0231 37.7127 20.1735 37.6082 20.374C37.5038 20.5745 37.4515 20.775 37.3993 20.9755H40.7945C40.7423 20.5745 40.5856 20.1735 40.2722 19.8226C40.011 19.6221 39.5931 19.4717 39.1753 19.4717ZM48.4206 15.3614C48.8385 15.3614 49.2564 15.4115 49.622 15.5117C49.9876 15.612 50.3533 15.7122 50.7189 15.9127C51.0323 16.0631 51.3457 16.2636 51.6591 16.5143C51.9203 16.7649 52.1814 17.0155 52.3381 17.3163L51.0323 18.1183C50.7711 17.7173 50.3533 17.3664 49.8832 17.1659C49.4131 16.9153 48.8385 16.815 48.3161 16.815C47.846 16.815 47.3759 16.9153 46.9581 17.0657C46.5402 17.216 46.2268 17.4667 45.9134 17.7674C45.6 18.0682 45.3911 18.4191 45.2344 18.8201C44.8687 19.6722 44.8687 20.6747 45.2344 21.5269C45.3911 21.9279 45.6522 22.2788 45.9134 22.5795C46.2268 22.8803 46.5402 23.0808 46.9581 23.2813C47.3759 23.4317 47.846 23.5319 48.3161 23.5319C49.3608 23.5319 50.3533 23.0808 50.9801 22.2287L52.2337 23.1309C52.0247 23.4317 51.7636 23.6823 51.5024 23.8828C51.2412 24.1335 50.9278 24.334 50.6144 24.4843C50.2488 24.6347 49.9354 24.7851 49.5175 24.8352C48.4206 25.0859 47.3237 24.9856 46.279 24.5846C45.0777 24.1335 44.1375 23.2312 43.6674 22.0783C43.1972 20.8753 43.1972 19.5218 43.6674 18.2687C44.1375 17.1158 45.0777 16.2135 46.279 15.7624C47.0625 15.4616 47.7416 15.3614 48.4206 15.3614ZM56.8302 18.2687C57.3003 18.2687 57.7704 18.3689 58.2405 18.5193C58.6584 18.6697 59.024 18.9203 59.3375 19.2211C59.6509 19.5218 59.912 19.8727 60.0687 20.2737C60.4344 21.1259 60.4344 22.0282 60.0687 22.8803C59.912 23.2813 59.6509 23.6322 59.3375 23.933C59.024 24.2337 58.6584 24.4843 58.2405 24.6347C57.3526 24.9856 56.3601 24.9856 55.4199 24.6347C55.0021 24.4843 54.6364 24.2337 54.323 23.933C54.0096 23.6322 53.7484 23.2813 53.5917 22.9304C53.2261 22.0783 53.2261 21.176 53.5917 20.3239C53.7484 19.9229 54.0096 19.572 54.323 19.2712C54.6364 18.9705 55.0021 18.7198 55.4199 18.5694C55.89 18.3689 56.3601 18.2687 56.8302 18.2687ZM56.8302 19.5218C56.5691 19.5218 56.2557 19.572 55.9945 19.6722C55.7333 19.7725 55.5244 19.9229 55.3677 20.0732C55.1588 20.2737 55.0543 20.4742 54.9498 20.7249C54.7409 21.2261 54.7409 21.8277 54.9498 22.3289C55.0543 22.5795 55.211 22.7801 55.3677 22.9806C55.5766 23.1811 55.7856 23.2813 55.9945 23.3816C56.5168 23.5821 57.0914 23.5821 57.6137 23.3816C58.0838 23.1811 58.5017 22.8302 58.7106 22.379C58.9196 21.8778 58.9196 21.2763 58.7106 20.775C58.6062 20.5244 58.4495 20.3239 58.2928 20.1234C58.0838 19.9229 57.8749 19.8226 57.666 19.7223C57.4048 19.6221 57.1436 19.572 56.8302 19.5218ZM64.6653 18.2687C65.4488 18.2186 66.2323 18.5694 66.7024 19.171V15.2611H68.1127V24.6848H66.7024V23.933C66.4935 24.2337 66.1801 24.4342 65.8667 24.5846C65.501 24.735 65.0832 24.8352 64.6653 24.8352C63.7773 24.8352 62.9416 24.4843 62.367 23.933C62.0536 23.6322 61.8447 23.2813 61.688 22.8803C61.3746 22.0282 61.3746 21.0758 61.688 20.2236C61.8447 19.8226 62.1058 19.4717 62.367 19.171C62.9416 18.5694 63.7773 18.2687 64.6653 18.2687ZM64.822 19.5218C64.5608 19.5218 64.2474 19.572 63.9862 19.6722C63.7773 19.7725 63.5161 19.9229 63.3594 20.1234C63.2027 20.3239 63.046 20.5244 62.9938 20.775C62.8371 21.2763 62.8371 21.8277 62.9938 22.3289C63.0983 22.5795 63.2027 22.7801 63.3594 22.9806C63.5161 23.1811 63.7251 23.3314 63.9862 23.4317C64.5086 23.6322 65.0832 23.6322 65.6055 23.4317C65.8667 23.3314 66.0756 23.1811 66.2323 23.0307C66.389 22.8803 66.5457 22.6798 66.6502 22.4292C66.8591 21.9279 66.8591 21.3264 66.6502 20.8251C66.5457 20.5745 66.4412 20.374 66.2323 20.1735C66.0756 19.973 65.8667 19.8727 65.6055 19.7725C65.3443 19.6221 65.0832 19.572 64.822 19.5218ZM72.866 18.2687C73.2838 18.2687 73.7017 18.3689 74.1196 18.5193C74.4852 18.6697 74.7986 18.9203 75.112 19.171C75.3732 19.4717 75.5821 19.8226 75.7388 20.2236C75.8955 20.6747 76 21.1259 75.9478 21.577C75.9478 21.6773 75.9478 21.7274 75.9478 21.8277C75.9478 21.9279 75.9478 21.978 75.9478 22.0783H71.1423C71.1945 22.3289 71.2467 22.5795 71.4034 22.8302C71.5079 23.0307 71.6646 23.1811 71.8735 23.3314C72.0302 23.4818 72.2392 23.5821 72.4481 23.6322C72.657 23.6823 72.866 23.7325 73.1271 23.7325C73.4405 23.7325 73.8062 23.6823 74.1196 23.5821C74.433 23.4818 74.7464 23.2813 75.0076 23.0808L75.7388 24.0332C75.3732 24.334 74.9553 24.5846 74.4852 24.735C74.0151 24.8854 73.545 24.9355 73.0749 24.9355C72.6048 24.9355 72.1347 24.8352 71.7168 24.6848C71.299 24.5345 70.9856 24.2838 70.6722 24.0332C70.3588 23.7325 70.1498 23.3816 69.9931 22.9806C69.8364 22.5294 69.7319 22.0783 69.7319 21.6271C69.7319 21.176 69.7842 20.7249 69.9931 20.2737C70.1498 19.8727 70.3588 19.5218 70.6722 19.2211C70.9856 18.9203 71.299 18.7198 71.7168 18.5694C71.978 18.3689 72.4481 18.2687 72.866 18.2687ZM72.8137 19.4717C72.6048 19.4717 72.3436 19.5218 72.1347 19.572C71.9258 19.6221 71.7691 19.7725 71.6124 19.8727C71.4557 20.0231 71.3512 20.1735 71.2467 20.374C71.1423 20.5745 71.09 20.775 71.0378 20.9755H74.433C74.3808 20.5244 74.224 20.1234 73.9106 19.8226C73.6495 19.6221 73.2316 19.4717 72.8137 19.4717Z" fill="#676B8B" fill-opacity="0.6"/>
<path d="M11.439 11.8025H9.81975V3.98276L6.9469 10.8501H5.27542L2.40257 4.03288V11.7523H0.783325V2.27846H3.23831L6.11116 9.04551L8.98401 2.27846H11.439V11.8025ZM19.8486 11.8025H18.3861V11.0506C18.1249 11.3513 17.8637 11.5518 17.4981 11.7523C17.1325 11.9528 16.6624 12.003 16.2445 12.003C15.3565 12.003 14.4685 11.6521 13.8417 11.0506C13.5283 10.7498 13.2672 10.3488 13.1105 9.94778C12.7448 9.04551 12.7448 8.09311 13.1105 7.19084C13.2672 6.78983 13.5283 6.43894 13.8417 6.08806C14.4685 5.48654 15.3565 5.13566 16.2445 5.13566C16.6624 5.13566 17.0802 5.23591 17.4981 5.38629C17.8637 5.53667 18.1249 5.7873 18.3861 6.08806V5.28604H19.8486V11.8025ZM16.4012 6.43894C16.0878 6.43894 15.8266 6.48907 15.5655 6.58932C15.3043 6.68957 15.0954 6.83995 14.9387 7.04046C14.782 7.24096 14.6252 7.44147 14.5208 7.6921C14.3118 8.19336 14.3118 8.79488 14.5208 9.29614C14.6252 9.54677 14.7297 9.74728 14.9387 9.94778C15.0954 10.1483 15.3565 10.2987 15.5655 10.3989C16.0878 10.5994 16.7146 10.5994 17.2369 10.3989C17.4981 10.2987 17.707 10.1483 17.8637 9.94778C18.0204 9.74728 18.1771 9.54677 18.2816 9.29614C18.4905 8.74475 18.4905 8.19336 18.2816 7.64197C18.1771 7.39134 18.0204 7.19084 17.8637 6.99033C17.707 6.78983 17.4459 6.63945 17.2369 6.5392C16.9758 6.48907 16.7146 6.43894 16.4012 6.43894ZM26.639 6.94021C26.5345 6.89008 26.3778 6.78983 26.2734 6.7397C26.1167 6.68957 25.9077 6.58932 25.751 6.5392C25.5421 6.48907 25.3854 6.43894 25.1765 6.38882C24.9675 6.33869 24.7586 6.33869 24.5496 6.33869C24.2362 6.33869 23.8706 6.38882 23.6094 6.5392C23.4005 6.63945 23.296 6.89008 23.296 7.09058C23.296 7.19084 23.3483 7.29109 23.4005 7.39134C23.4527 7.49159 23.5572 7.54172 23.6094 7.59185C23.7139 7.64197 23.8184 7.6921 23.9751 7.6921C24.1318 7.74223 24.2362 7.74223 24.3929 7.79235L25.072 7.8926C25.6988 7.94273 26.2734 8.19336 26.7957 8.49412C27.2136 8.845 27.4225 9.34627 27.4225 9.84753C27.4225 10.1483 27.3703 10.449 27.2136 10.6997C27.0569 10.9503 26.8479 11.2009 26.5868 11.3513C26.2734 11.5518 25.96 11.7022 25.6466 11.8025C25.2287 11.9027 24.7586 11.9528 24.3407 11.9528C24.184 11.9528 23.9751 11.9528 23.7139 11.9027C23.4527 11.9027 23.2438 11.8526 22.9826 11.8025C22.7215 11.7523 22.4603 11.6521 22.1991 11.5518C21.938 11.4516 21.6768 11.3012 21.4156 11.1508L22.0947 10.0982C22.1991 10.1984 22.3558 10.2987 22.5125 10.3488C22.6692 10.449 22.8259 10.4992 22.9826 10.5493C23.1916 10.5994 23.4005 10.6495 23.6094 10.6997C23.8706 10.7498 24.1318 10.7498 24.3407 10.7498C24.7586 10.7498 25.1242 10.6997 25.4899 10.5493C25.751 10.449 25.8555 10.1984 25.9077 9.99791C25.9077 9.7974 25.8033 9.64702 25.6466 9.54677C25.3854 9.39639 25.072 9.29614 24.7586 9.29614L24.0795 9.19589C23.4527 9.14576 22.8782 8.94526 22.3558 8.54425C21.9902 8.24349 21.729 7.74223 21.7813 7.29109C21.7813 6.99033 21.8335 6.68957 21.9902 6.43894C22.0947 6.18831 22.3036 5.93768 22.5648 5.7873C22.8259 5.5868 23.1393 5.43642 23.4527 5.38629C23.8184 5.28604 24.2362 5.23591 24.6019 5.23591C25.1242 5.23591 25.5943 5.28604 26.1167 5.43642C26.5345 5.53667 26.9524 5.68705 27.3703 5.93768L26.639 6.94021ZM33.6383 6.58932H31.0266V9.39639C31.0266 9.5969 31.0789 9.7974 31.1311 9.94778C31.1833 10.0982 31.2356 10.1984 31.34 10.3488C31.4445 10.449 31.549 10.4992 31.7057 10.5493C31.8624 10.5994 31.9668 10.5994 32.1235 10.5994C32.3847 10.5994 32.5936 10.5493 32.8026 10.449C33.0115 10.3488 33.2727 10.2485 33.4816 10.1483L34.0562 11.3012C33.7428 11.5017 33.4816 11.6521 33.116 11.7523C32.7503 11.9027 32.3325 11.9528 31.9668 11.9528C31.2878 12.003 30.661 11.7523 30.1909 11.3513C29.7208 10.7999 29.4596 10.1483 29.5641 9.44652V6.58932H28.206V5.28604H29.5641V3.33112H31.0266V5.28604H33.6383V6.58932ZM38.1826 5.13566C38.6527 5.13566 39.0706 5.23591 39.4885 5.38629C39.8541 5.53667 40.2198 5.7873 40.4809 6.08806C40.7943 6.38882 41.0033 6.78983 41.16 7.14071C41.3167 7.59185 41.4211 8.04298 41.3689 8.54425C41.3689 8.6445 41.3689 8.74475 41.3689 8.79488C41.3689 8.845 41.3689 8.94526 41.3689 9.04551H36.3545C36.4067 9.29614 36.4589 9.54677 36.6156 9.7974C36.7201 9.99791 36.8768 10.1483 37.0857 10.2987C37.2424 10.449 37.4514 10.5493 37.7125 10.5994C37.9215 10.6495 38.1826 10.6997 38.3916 10.6997C38.7572 10.6997 39.1228 10.6495 39.4362 10.4992C39.7496 10.3989 40.1153 10.1984 40.3765 9.99791L41.1077 11.0004C40.7421 11.3012 40.272 11.5518 39.8019 11.7022C39.3318 11.8526 38.8094 11.9027 38.3393 11.9027C37.8692 11.9027 37.3469 11.8526 36.929 11.7022C36.5112 11.5518 36.1455 11.3012 35.8321 11.0004C35.5187 10.6997 35.2575 10.3488 35.1008 9.89765C34.9441 9.44652 34.8397 8.99538 34.8397 8.49412C34.8397 8.04298 34.8919 7.54172 35.1008 7.09058C35.2575 6.68957 35.4665 6.33869 35.7799 5.98781C36.0933 5.68705 36.4067 5.43642 36.8246 5.28604C37.2424 5.18579 37.7125 5.13566 38.1826 5.13566ZM38.1304 6.38882C37.8692 6.38882 37.6603 6.43894 37.4514 6.48907C37.2424 6.5392 37.0857 6.68957 36.929 6.83995C36.7723 6.99033 36.6679 7.14071 36.5634 7.34122C36.4589 7.54172 36.4067 7.79235 36.3545 7.99286H39.8541C39.8019 7.54172 39.5929 7.14071 39.2795 6.78983C38.9661 6.5392 38.6005 6.38882 38.1304 6.38882ZM46.4878 5.13566C46.6967 5.13566 46.9057 5.13566 47.1146 5.18579C47.2713 5.23591 47.4802 5.28604 47.6369 5.33617L47.2713 6.68957C47.1146 6.58932 46.9057 6.5392 46.749 6.48907C46.54 6.43894 46.3833 6.43894 46.1744 6.43894C45.9655 6.43894 45.7565 6.48907 45.5476 6.5392C45.3386 6.58932 45.1819 6.7397 45.0252 6.89008C44.8685 7.04046 44.7641 7.24096 44.7118 7.44147C44.6074 7.6921 44.6074 7.94273 44.6074 8.19336V11.7523H43.0926V5.23591H44.5551V5.98781C44.7641 5.68705 45.0252 5.48654 45.3909 5.33617C45.7043 5.18579 46.1222 5.13566 46.4878 5.13566ZM51.5545 5.13566C52.0246 5.13566 52.5469 5.23591 52.9648 5.38629C53.3826 5.53667 53.7483 5.83743 54.0617 6.13819L53.1215 7.09058C52.9125 6.89008 52.6514 6.7397 52.3902 6.58932C52.129 6.48907 51.8156 6.38882 51.5022 6.38882C51.2411 6.38882 50.9799 6.43894 50.7187 6.5392C50.4576 6.63945 50.2486 6.78983 50.0919 6.99033C49.883 7.19084 49.7785 7.39134 49.674 7.64197C49.4651 8.19336 49.4651 8.79488 49.674 9.34627C49.7785 9.5969 49.9352 9.7974 50.0919 9.99791C50.2486 10.1984 50.5098 10.3488 50.7187 10.3989C50.9799 10.4992 51.2411 10.5493 51.5022 10.5493C51.8156 10.5493 52.129 10.4992 52.3902 10.3488C52.6514 10.1984 52.9125 10.048 53.1215 9.84753L54.0094 10.8501C53.696 11.2009 53.3304 11.4516 52.9125 11.6019C52.4424 11.8025 51.9723 11.8526 51.5022 11.8526C50.9799 11.8526 50.5098 11.7523 50.0397 11.6019C49.2039 11.3012 48.5249 10.5994 48.2115 9.7974C47.8981 8.94526 47.8981 7.94273 48.2115 7.09058C48.5249 6.28856 49.2039 5.63692 50.0397 5.28604C50.562 5.18579 51.0321 5.08553 51.5545 5.13566ZM61.949 11.8025H60.4864V11.0506C60.2253 11.3513 59.9641 11.5518 59.5984 11.7523C59.2328 11.9528 58.7627 12.003 58.3448 12.003C57.4569 12.003 56.5689 11.6521 55.9421 11.0506C55.6287 10.7498 55.3675 10.3488 55.2108 9.94778C54.8452 9.04551 54.8452 8.09311 55.2108 7.19084C55.3675 6.78983 55.6287 6.43894 55.9421 6.08806C56.5689 5.48654 57.4569 5.13566 58.3448 5.13566C58.7627 5.13566 59.1806 5.23591 59.5984 5.38629C59.9641 5.53667 60.2253 5.7873 60.4864 6.08806V5.28604H61.949V11.8025ZM58.5015 6.43894C58.1881 6.43894 57.927 6.48907 57.6658 6.58932C57.4046 6.68957 57.1957 6.83995 57.039 7.04046C56.8823 7.24096 56.7256 7.44147 56.6211 7.6921C56.4122 8.19336 56.4122 8.79488 56.6211 9.29614C56.7256 9.54677 56.8301 9.74728 57.039 9.94778C57.1957 10.1483 57.4569 10.2987 57.6658 10.3989C58.1881 10.5994 58.8149 10.5994 59.3373 10.3989C59.5984 10.2987 59.8074 10.1483 59.9641 9.94778C60.1208 9.74728 60.2775 9.54677 60.382 9.29614C60.5909 8.74475 60.5909 8.19336 60.382 7.64197C60.2775 7.39134 60.1208 7.19084 59.9641 6.99033C59.8074 6.78983 59.5462 6.63945 59.3373 6.5392C59.0761 6.48907 58.8149 6.43894 58.5015 6.43894ZM67.538 5.13566C67.7469 5.13566 67.9558 5.13566 68.1648 5.18579C68.3215 5.23591 68.5304 5.28604 68.6871 5.33617L68.3215 6.7397C68.1648 6.63945 67.9558 6.58932 67.7991 6.5392C67.5902 6.48907 67.4335 6.48907 67.2246 6.48907C67.0156 6.48907 66.8067 6.5392 66.5978 6.58932C66.3888 6.63945 66.2321 6.78983 66.0754 6.94021C65.9187 7.09058 65.8143 7.29109 65.762 7.49159C65.6576 7.74223 65.6576 7.99286 65.6576 8.24349V11.8025H64.195V5.28604H65.6576V6.03793C65.8665 5.73718 66.1277 5.48654 66.4933 5.38629C66.7545 5.18579 67.1723 5.13566 67.538 5.13566ZM72.3957 5.13566C72.8136 5.13566 73.2314 5.23591 73.6493 5.38629C74.0149 5.53667 74.2761 5.7873 74.5373 6.08806V2.02783H75.9998V11.8025H74.5373V11.0506C74.2761 11.3513 74.0149 11.5518 73.6493 11.7523C73.2837 11.9528 72.8136 12.003 72.3957 12.003C71.5077 12.003 70.6198 11.6521 69.993 11.0506C69.6796 10.7498 69.4184 10.3488 69.2617 9.94778C68.896 9.04551 68.896 8.09311 69.2617 7.19084C69.4184 6.78983 69.6796 6.43894 69.993 6.08806C70.6198 5.43642 71.4555 5.13566 72.3957 5.13566ZM72.5524 6.48907C72.239 6.48907 71.9778 6.5392 71.7167 6.63945C71.4555 6.7397 71.2466 6.89008 71.0899 7.09058C70.9332 7.29109 70.7765 7.49159 70.672 7.74223C70.4631 8.24349 70.4631 8.845 70.672 9.34627C70.7765 9.5969 70.8809 9.7974 71.0899 9.99791C71.2466 10.1984 71.5077 10.3488 71.7167 10.449C72.239 10.6495 72.8658 10.6495 73.3881 10.449C73.6493 10.3488 73.8582 10.1984 74.0149 9.99791C74.2239 9.7974 74.3806 9.54677 74.485 9.29614C74.694 8.74475 74.694 8.19336 74.485 7.64197C74.3806 7.39134 74.2239 7.19084 74.0672 6.99033C73.9105 6.78983 73.6493 6.63945 73.4404 6.5392C73.127 6.48907 72.8658 6.43894 72.5524 6.48907Z" fill="#676B8B"/>
</svg>
